<svg width="176" height="174" viewBox="0 0 176 174" fill="none" xmlns="http://www.w3.org/2000/svg">
<path d="M91.8949 107.492C91.7275 109.85 88.3273 110.018 87.929 107.687L82.0363 73.2125C81.8162 71.9249 80.9814 70.8254 79.7999 70.2682L48.5207 55.5167C46.2879 54.4638 47.5707 51.0925 49.9386 51.7901L86.3723 62.5273C87.2395 62.7828 88.168 62.7371 89.0059 62.3976L124.208 48.1318C126.496 47.2049 128.104 50.4337 125.985 51.7011L96.3072 69.4551C95.1862 70.1257 94.4625 71.302 94.37 72.605L91.8949 107.492Z" fill="#FBEB66" stroke="#E95724" stroke-width="2"/>
<path d="M86.5656 39.3438C87.087 37.3529 89.9132 37.3528 90.4347 39.3438L113.828 128.744C114.16 130.012 113.204 131.25 111.894 131.25H65.1066C63.7965 131.25 62.8405 130.012 63.172 128.744L86.5656 39.3438Z" fill="#E28B29" stroke="#C41A61" stroke-width="2"/>
<mask id="path-3-inside-1_1289_36" fill="white">
<path d="M110 131.5C110 125.919 109.535 120.392 108.63 115.236C107.725 110.08 106.399 105.394 104.728 101.448C103.057 97.5015 101.072 94.3709 98.8884 92.2351C96.7046 90.0993 94.3639 89 92.0001 89C89.6363 89 87.2957 90.0993 85.1118 92.2351C82.928 94.3709 80.9437 97.5015 79.2722 101.448C77.6007 105.394 76.2749 110.08 75.3703 115.236C74.4657 120.392 74.0001 125.919 74.0001 131.5L92.0001 131.5H110Z"/>
</mask>
<path d="M110 131.5C110 125.919 109.535 120.392 108.63 115.236C107.725 110.08 106.399 105.394 104.728 101.448C103.057 97.5015 101.072 94.3709 98.8884 92.2351C96.7046 90.0993 94.3639 89 92.0001 89C89.6363 89 87.2957 90.0993 85.1118 92.2351C82.928 94.3709 80.9437 97.5015 79.2722 101.448C77.6007 105.394 76.2749 110.08 75.3703 115.236C74.4657 120.392 74.0001 125.919 74.0001 131.5L92.0001 131.5H110Z" fill="#F7F3F1" stroke="#C41A61" stroke-width="4" mask="url(#path-3-inside-1_1289_36)"/>
</svg>
